<?xml version="1.0" encoding="UTF-8" standalone="no"?>
<!-- Created with Inkscape (http://www.inkscape.org/) -->

<svg
   xmlns:dc="http://purl.org/dc/elements/1.1/"
   xmlns:cc="http://creativecommons.org/ns#"
   xmlns:rdf="http://www.w3.org/1999/02/22-rdf-syntax-ns#"
   xmlns:svg="http://www.w3.org/2000/svg"
   xmlns="http://www.w3.org/2000/svg"
   xmlns:sodipodi="http://sodipodi.sourceforge.net/DTD/sodipodi-0.dtd"
   xmlns:inkscape="http://www.inkscape.org/namespaces/inkscape"
   width="15.55221mm"
   height="15.55221mm"
   viewBox="0 0 15.552209 15.55221"
   version="1.1"
   id="svg8"
   inkscape:version="0.92.4 (unknown)"
   sodipodi:docname="favicon.svg">
  <defs
     id="defs2" />
  <sodipodi:namedview
     id="base"
     pagecolor="#ffffff"
     bordercolor="#666666"
     borderopacity="1.0"
     inkscape:pageopacity="0.0"
     inkscape:pageshadow="2"
     inkscape:zoom="5.6568543"
     inkscape:cx="19.15659"
     inkscape:cy="37.028492"
     inkscape:document-units="mm"
     inkscape:current-layer="text817"
     showgrid="true"
     inkscape:snap-text-baseline="true"
     inkscape:snap-bbox="true"
     inkscape:snap-intersection-paths="true"
     inkscape:snap-grids="false"
     inkscape:object-paths="false"
     inkscape:snap-smooth-nodes="true"
     inkscape:window-width="1920"
     inkscape:window-height="1016"
     inkscape:window-x="0"
     inkscape:window-y="27"
     inkscape:window-maximized="1"
     inkscape:snap-page="true"
     fit-margin-top="0"
     fit-margin-left="0"
     fit-margin-right="0"
     fit-margin-bottom="0">
    <inkscape:grid
       type="xygrid"
       id="grid943"
       originx="0.0011259999"
       originy="-284.70996" />
  </sodipodi:namedview>
  <metadata
     id="metadata5">
    <rdf:RDF>
      <cc:Work
         rdf:about="">
        <dc:format>image/svg+xml</dc:format>
        <dc:type
           rdf:resource="http://purl.org/dc/dcmitype/StillImage" />
        <dc:title></dc:title>
      </cc:Work>
    </rdf:RDF>
  </metadata>
  <g
     inkscape:label="Calque 1"
     inkscape:groupmode="layer"
     id="layer1"
     style="display:inline"
     transform="translate(0.001126,3.262175)">
    <g
       aria-label="P"
       style="font-style:normal;font-weight:normal;font-size:12.69999981px;line-height:1.25;font-family:sans-serif;letter-spacing:0px;word-spacing:0px;display:none;fill:#000000;fill-opacity:1;stroke:none;stroke-width:0.26458332"
       id="text941"
       sodipodi:insensitive="true">
      <path
         id="path946"
         style="stroke-width:0.26458332"
         d="m 19.167823,19.160629 v 3.478857 h 1.575098 c 0.58291,0 1.033528,-0.150895 1.351855,-0.452686 0.318327,-0.30179 0.47749,-0.731738 0.47749,-1.289843 0,-0.553971 -0.159163,-0.981852 -0.47749,-1.283643 -0.318327,-0.30179 -0.768945,-0.452685 -1.351855,-0.452685 z m -1.252637,-1.029395 h 2.827735 c 1.037663,0 1.821077,0.235645 2.350244,0.706934 0.533301,0.467155 0.799951,1.153418 0.799951,2.058789 0,0.913639 -0.26665,1.604036 -0.799951,2.071191 -0.529167,0.467155 -1.312581,0.700733 -2.350244,0.700733 h -1.575098 v 3.720703 h -1.252637 z"
         inkscape:connector-curvature="0"
         sodipodi:nodetypes="ccscscscsscscscccs" />
    </g>
    <g
       aria-label="QUIC"
       style="font-style:normal;font-weight:normal;font-size:12.69999981px;line-height:1.25;font-family:sans-serif;letter-spacing:0px;word-spacing:0px;display:inline;fill:#309efc;fill-opacity:1;stroke:none;stroke-width:0.26458332"
       id="text817"
       transform="translate(-0.923828,-1.1731773)">
      <path
         id="path894"
         style="font-style:normal;font-variant:normal;font-weight:normal;font-stretch:normal;font-size:14.11111069px;font-family:sans-serif;-inkscape-font-specification:sans-serif;fill:#309efc;fill-opacity:1"
         d="m 11.721009,1.170254 c -1.44694,0 -2.6044924,0.485859 -3.4726564,1.455078 -0.33454,0.373688 -0.637145,0.783866 -0.809077,1.269528 -0.02067,0.5711 0.0023,0.978212 0.361121,1.01301 0.255526,0.02103 0.735825,-0.04244 1.390946,0.05096 0.565636,0.08065 1.3006634,0.588502 1.2970894,1.590543 -0.0049,1.372553 -0.7690864,1.819731 -1.7041034,1.860864 -0.548729,0.02414 -0.850719,-0.01012 -1.088171,0.0033 -0.428018,0.02423 -0.257253,0.780083 -0.109844,1.019873 0.206809,0.336415 0.40225,0.671817 0.662034,0.963383 0.868164,0.964627 2.0257164,1.447266 3.4726564,1.447265 0.0735,0 0.150427,-0.0032 0.228516,-0.0078 0.08268,-0.0046 0.199978,-0.01035 0.351562,-0.01953 l 1.521485,1.646484 h 1.68164 l -1.832026,-2.005847 c 0.909505,-0.404224 1.602358,-1.031069 2.080078,-1.880861 0.482313,-0.84979 0.722656,-1.872106 0.722656,-3.066406 0,-1.626085 -0.431351,-2.920139 -1.294922,-3.884766 -0.86357,-0.96922 -2.016637,-1.455078 -3.458984,-1.455078 z m 0,1.13086 c 1.010561,0 1.810475,0.375579 2.398438,1.128906 0.592556,0.753327 0.888672,1.780129 0.888672,3.080078 0,1.295356 -0.296116,2.320892 -0.888672,3.074219 -0.587963,0.753329 -1.387877,1.128907 -2.398438,1.128907 -1.010561,0 -1.8130064,-0.375578 -2.4101564,-1.128907 C 9.2667326,9.528227 9.1119116,9.418418 9.1834206,9.411515 11.312871,9.205945 11.813077,7.856546 11.794465,6.532542 11.778455,5.393557 11.123458,4.402115 10.265923,4.153464 8.4077716,3.614675 8.8550846,4.158064 9.0027176,3.893469 9.0945376,3.728935 9.1972446,3.574451 9.3108526,3.43002 9.9080026,2.676693 10.710448,2.301114 11.721009,2.301114 Z"
         inkscape:connector-curvature="0"
         sodipodi:nodetypes="scccssssscsccccccscsscscscsssscs" />
    </g>
    <g
       aria-label="P"
       style="font-style:normal;font-weight:normal;font-size:11.28888893px;line-height:1.25;font-family:sans-serif;letter-spacing:0px;word-spacing:0px;display:inline;fill:#2ef2ad;fill-opacity:1;stroke:none;stroke-width:0.26458332"
       id="text4661"
       transform="translate(-13.015319,-15.413729)">
      <path
         id="path4665"
         style="fill:#2ef2ad;fill-opacity:1;stroke-width:0.26458332"
         d="m 14.127648,19.281206 v 3.092318 h 1.400086 q 0.777214,0 1.20165,-0.402387 0.424435,-0.402388 0.424435,-1.146528 0,-0.738629 -0.424435,-1.141016 -0.424436,-0.402387 -1.20165,-0.402387 z m -1.113455,-0.915017 h 2.513541 q 1.383551,0 2.089106,0.628385 0.711068,0.622873 0.711068,1.830035 0,1.218186 -0.711068,1.841059 -0.705555,0.622873 -2.089106,0.622873 h -1.400086 v 3.307292 h -1.113455 z"
         inkscape:connector-curvature="0" />
    </g>
  </g>
</svg>
